<svg xmlns="http://www.w3.org/2000/svg" width="512" height="512" viewBox="0 0 512 512">
  <defs>
    <linearGradient id="bg" x1="0" y1="0" x2="1" y2="1">
      <stop offset="0%" stop-color="#4f46e5"/>
      <stop offset="100%" stop-color="#7c3aed"/>
    </linearGradient>
    <linearGradient id="cap" x1="0" y1="0" x2="0" y2="1">
      <stop offset="0%" stop-color="#fbbf24"/>
      <stop offset="100%" stop-color="#f59e0b"/>
    </linearGradient>
  </defs>
  <rect width="512" height="512" rx="96" fill="url(#bg)"/>
  <!-- Graduation cap -->
  <path d="M256 96 L120 176 L256 256 L392 176 Z" fill="url(#cap)"/>
  <rect x="152" y="186" width="208" height="24" rx="4" fill="url(#cap)"/>
  <rect x="240" y="186" width="32" height="60" rx="4" fill="#f59e0b"/>
  <!-- Tassel -->
  <circle cx="392" cy="176" r="6" fill="#fbbf24"/>
  <path d="M392 176 Q420 200 400 240" stroke="#fbbf24" stroke-width="4" fill="none" stroke-linecap="round"/>
  <circle cx="400" cy="240" r="5" fill="#ef4444"/>
  <!-- Book beneath -->
  <rect x="160" y="300" width="192" height="80" rx="8" fill="rgba(255,255,255,.15)"/>
  <rect x="170" y="310" width="80" height="60" rx="4" fill="rgba(255,255,255,.25)"/>
  <rect x="258" y="310" width="80" height="60" rx="4" fill="rgba(255,255,255,.25)"/>
  <line x1="256" y1="310" x2="256" y2="370" stroke="rgba(255,255,255,.15)" stroke-width="2"/>
  <!-- Star -->
  <circle cx="130" cy="120" r="18" fill="rgba(255,255,255,.15)"/>
  <polygon points="130,108 133,117 142,117 135,123 138,132 130,127 122,132 125,123 118,117 127,117" fill="rgba(255,255,255,.3)"/>
</svg>
